<svg width="30" height="30" viewBox="0 0 30 30" fill="none" xmlns="http://www.w3.org/2000/svg">
<path d="M12.7125 6.2499C12.8993 6.24926 13.0838 6.29048 13.2525 6.37052C13.4212 6.45055 13.5699 6.56738 13.6875 6.7124L19.725 14.2124C19.9089 14.4361 20.0094 14.7166 20.0094 15.0061C20.0094 15.2957 19.9089 15.5762 19.725 15.7999L13.475 23.2999C13.2629 23.5552 12.958 23.7157 12.6274 23.7462C12.2969 23.7767 11.9678 23.6746 11.7125 23.4624C11.4573 23.2502 11.2967 22.9453 11.2663 22.6148C11.2358 22.2843 11.3379 21.9552 11.55 21.6999L17.1375 14.9999L11.7375 8.2999C11.5847 8.11642 11.4876 7.89299 11.4577 7.65606C11.4279 7.41912 11.4665 7.17859 11.5691 6.96293C11.6717 6.74727 11.8339 6.56551 12.0365 6.43914C12.2392 6.31278 12.4737 6.24711 12.7125 6.2499Z" fill="#414141"/>
</svg>
