<svg width="20" height="20" viewBox="0 0 20 20" fill="none" xmlns="http://www.w3.org/2000/svg">
<path d="M17.5003 19.9771H17.3728C2.63531 19.1296 0.542808 6.69455 0.250308 2.89955C0.226739 2.60449 0.261624 2.30767 0.352964 2.02611C0.444304 1.74455 0.590303 1.48378 0.782596 1.25874C0.974889 1.0337 1.2097 0.848817 1.47357 0.71468C1.73743 0.580544 2.02518 0.499792 2.32031 0.477051H6.45281C6.75323 0.476761 7.04681 0.566684 7.29553 0.735173C7.54425 0.903662 7.73665 1.14295 7.84781 1.42205L8.98781 4.22705C9.09757 4.49971 9.12481 4.79861 9.06614 5.08662C9.00747 5.37463 8.86548 5.63905 8.65781 5.84705L7.06031 7.45955C7.30985 8.87761 7.98895 10.1848 9.00573 11.2043C10.0225 12.2237 11.3279 12.9063 12.7453 13.1596L14.3728 11.5471C14.5839 11.3417 14.8508 11.203 15.1403 11.1483C15.4297 11.0936 15.7288 11.1254 16.0003 11.2396L18.8278 12.3721C19.1027 12.4867 19.3372 12.6806 19.5015 12.9291C19.6658 13.1775 19.7524 13.4692 19.7503 13.767V17.7271C19.7503 18.3238 19.5133 18.8961 19.0913 19.318C18.6693 19.74 18.097 19.9771 17.5003 19.9771ZM2.50031 1.97705C2.3014 1.97705 2.11063 2.05607 1.96998 2.19672C1.82933 2.33737 1.75031 2.52814 1.75031 2.72705V2.78705C2.09531 7.22705 4.30781 17.7271 17.4553 18.4771C17.5538 18.4831 17.6526 18.4697 17.7459 18.4376C17.8393 18.4054 17.9253 18.3551 17.9992 18.2896C18.073 18.2241 18.1333 18.1447 18.1763 18.0559C18.2194 17.9671 18.2446 17.8706 18.2503 17.7721V13.767L15.4228 12.6346L13.2703 14.7721L12.9103 14.7271C6.38531 13.9096 5.50031 7.38455 5.50031 7.31705L5.45531 6.95705L7.58531 4.80455L6.46031 1.97705H2.50031Z" fill="#21B24A"/>
</svg>
