<svg width="37" height="37" viewBox="0 0 37 37" fill="none" xmlns="http://www.w3.org/2000/svg">
<g clip-path="url(#clip0_77_275)">
<path d="M0.00785144 25.6742C0.00785144 30.5387 3.95107 34.4819 8.81549 34.4819C13.68 34.4819 17.6232 30.5387 17.6232 25.6742C17.6232 20.8097 13.68 16.8666 8.81549 16.8666C7.81578 16.8666 6.85881 17.0408 5.96295 17.348C7.94505 5.98011 16.8098 -1.35086 8.5922 4.68268C-0.519863 11.3732 -0.00190756 25.405 0.00828841 25.6622C0.00828841 25.6662 0.00785144 25.6698 0.00785144 25.6742Z" fill="#21B24A"/>
<path d="M19.383 25.6742C19.383 30.5387 23.3262 34.4819 28.1907 34.4819C33.0552 34.4819 36.9984 30.5387 36.9984 25.6742C36.9984 20.8097 33.0551 16.8666 28.1906 16.8666C27.1909 16.8666 26.234 17.0408 25.3381 17.348C27.3202 5.98011 36.1849 -1.35086 27.9674 4.68268C18.8553 11.3732 19.3732 25.405 19.3834 25.6622C19.3834 25.6662 19.383 25.6698 19.383 25.6742Z" fill="#21B24A"/>
</g>
<defs>
<clipPath id="clip0_77_275">
<rect width="37" height="37" fill="white"/>
</clipPath>
</defs>
</svg>
